# xmcd CD database file
#
# Track frame offsets:
#	150
#	11514
#	25195
#	39020
#	53219
#	68104
#	82441
#	96252
#	125579
#	138519
#	151399
#	165231
#	178920
#	191092
#	202726
#	218158
#	231379
#	245010
#	256285
#	270576
#	281765
#
# Disc length: 4063 seconds
#
# Revision: 0
# Processed by: cddbd v1.4PL0 Copyright (c) Steve Scherf et al.
# Submitted via: CDex 1.50
#
DISCID=2f0fdd15
DTITLE=Sonny Stitt - Sax O'Bebop, Blues Up And Down Disc 3
DYEAR=1950
DGENRE=Jazz
TTITLE0=Avalon
TTITLE1=Later
TTITLE2=Ain't Misbehavin'
TTITLE3=Mean To Me
TTITLE4=Stairway To The Stars
TTITLE5=Touch Of The Blues
TTITLE6=Bye Bye
TTITLE7=Blues Up And Down
TTITLE8=You Can Depend On Me Take 1
TTITLE9=You Can Depend On Me Take 2
TTITLE10=Chabootie
TTITLE11=Count Every Star
TTITLE12=Nice Work If You Can Get It
TTITLE13=There Will Never Be Another You
TTITLE14=Blazin'
TTITLE15=Seven Eleven
TTITLE16=To Think You've Chosen Me
TTITLE17=After You've Gone
TTITLE18=Our Very Own
TTITLE19=S'Wonderful
TTITLE20=Stringin' The Jug
EXTD=YEAR: 1950
EXTT0=
EXTT1=
EXTT2=
EXTT3=
EXTT4=
EXTT5=
EXTT6=
EXTT7=
EXTT8=
EXTT9=
EXTT10=
EXTT11=
EXTT12=
EXTT13=
EXTT14=
EXTT15=
EXTT16=
EXTT17=
EXTT18=
EXTT19=
EXTT20=
PLAYORDER=
